ffmpeg started on 2025-05-02 at 14:18:02
Report written to "D:\Convert\FFMetrics\reports\ssim_report-6.txt"
Log level: 32
Command line:
ffmpeg -hide_banner -nostdin -i "G:\\\xc0\xed\xe8\xec\xe5\\\xce\xed\xe3\xee\xe8\xed\xe3\xe8\\!_35_\xcb\xe5\xf2\xee_2024\\JamClub\\\xcf\xee\xf7\xe5\xec\xf3 \xe2\xf1\xe5 \xe7\xe0\xe1\xfb\xeb\xe8 \xec\xee\xe9 \xec\xe8\xf0\\JamClub_Naze_Boku_no_Sekai_o_Dare_mo_Oboeteinai_no_ka_06_1080p_HEVC.mkv" -i "G:\\\xc0\xed\xe8\xec\xe5\\\xce\xed\xe3\xee\xe8\xed\xe3\xe8\\!_35_\xcb\xe5\xf2\xee_2024\\JamClub\\\xcf\xee\xf7\xe5\xec\xf3 \xe2\xf1\xe5 \xe7\xe0\xe1\xfb\xeb\xe8 \xec\xee\xe9 \xec\xe8\xf0\\JamClub_Naze_Boku_no_Sekai_o_Dare_mo_Oboeteinai_no_ka_06_1080p.mp4" -lavfi "[0:v]settb=AVTB,setpts=PTS-STARTPTS,format=pix_fmts=yuv420p10,fps=24000/1001,scale=1920:1080:flags=bicubic[main];[1:v]settb=AVTB,setpts=PTS-STARTPTS,format=pix_fmts=yuv420p,fps=24000/1001,scale=1920:1080:flags=bicubic[ref];[main][ref]ssim=eof_action=endall:stats_file='D\\:/Convert/FFMetrics/logs/ssim_logfile-6.txt'" -f null -
Input #0, matroska,webm, from 'G:\Аниме\Онгоинги\!_35_Лето_2024\JamClub\Почему все забыли мой мир\JamClub_Naze_Boku_no_Sekai_o_Dare_mo_Oboeteinai_no_ka_06_1080p_HEVC.mkv':
  Metadata:
    COMPATIBLE_BRANDS: isomiso2avc1mp41
    MAJOR_BRAND     : isom
    MINOR_VERSION   : 512
    ENCODER         : Lavf61.7.100
  Duration: 00:24:02.28, start: -0.001000, bitrate: 1568 kb/s
  Stream #0:0: Video: hevc (Main 10), yuv420p10le(tv, bt709, progressive), 1920x1080 [SAR 1:1 DAR 16:9], 23.98 fps, 23.98 tbr, 1k tbn (default)
      Metadata:
        HANDLER_NAME    : VideoHandler
        VENDOR_ID       : [0][0][0][0]
        ENCODER         : Lavc61.19.100 libx265
        BPS             : 1370675
        DURATION        : 00:24:02.148708333
        NUMBER_OF_FRAMES: 34577
        NUMBER_OF_BYTES : 247089624
        _STATISTICS_WRITING_APP: mkvpropedit v66.0.0 ('Josie') 64-bit
        _STATISTICS_WRITING_DATE_UTC: 2025-04-30 12:00:00
        _STATISTICS_TAGS: BPS DURATION NUMBER_OF_FRAMES NUMBER_OF_BYTES
  Stream #0:1(eng): Audio: aac (LC), 48000 Hz, stereo, fltp (default)
      Metadata:
        HANDLER_NAME    : SoundHandler
        VENDOR_ID       : [0][0][0][0]
        ENCODER         : Lavc61.19.100 aac
        BPS             : 193687
        DURATION        : 00:24:02.243000000
        NUMBER_OF_FRAMES: 67606
        NUMBER_OF_BYTES : 34918066
        _STATISTICS_WRITING_APP: mkvpropedit v66.0.0 ('Josie') 64-bit
        _STATISTICS_WRITING_DATE_UTC: 2025-04-30 12:00:00
        _STATISTICS_TAGS: BPS DURATION NUMBER_OF_FRAMES NUMBER_OF_BYTES
Input #1, mov,mp4,m4a,3gp,3g2,mj2, from 'G:\Аниме\Онгоинги\!_35_Лето_2024\JamClub\Почему все забыли мой мир\JamClub_Naze_Boku_no_Sekai_o_Dare_mo_Oboeteinai_no_ka_06_1080p.mp4':
  Metadata:
    major_brand     : isom
    minor_version   : 512
    compatible_brands: isomiso2avc1mp41
    encoder         : Lavf60.16.100
  Duration: 00:24:02.26, start: 0.000000, bitrate: 4724 kb/s
  Stream #1:0[0x1](und): Video: h264 (High) (avc1 / 0x31637661), yuv420p(progressive), 1920x1080 [SAR 1:1 DAR 16:9], 4526 kb/s, 23.98 fps, 23.98 tbr, 90k tbn (default)
      Metadata:
        handler_name    : VideoHandler
        vendor_id       : [0][0][0][0]
  Stream #1:1[0x2](eng): Audio: aac (LC) (mp4a / 0x6134706D), 48000 Hz, stereo, fltp, 191 kb/s (default)
      Metadata:
        handler_name    : SoundHandler
        vendor_id       : [0][0][0][0]
Stream mapping:
  Stream #0:0 (hevc) -> settb:default
  Stream #1:0 (h264) -> settb:default
  ssim:default -> Stream #0:0 (wrapped_avframe)
  Stream #0:1 -> #0:1 (aac (native) -> pcm_s16le (native))
Output #0, null, to 'pipe:':
  Metadata:
    COMPATIBLE_BRANDS: isomiso2avc1mp41
    MAJOR_BRAND     : isom
    MINOR_VERSION   : 512
    encoder         : Lavf61.7.100
  Stream #0:0: Video: wrapped_avframe, yuv420p10le(tv, bt709, progressive), 1920x1080 [SAR 1:1 DAR 16:9], q=2-31, 200 kb/s, 23.98 fps, 23.98 tbn
      Metadata:
        encoder         : Lavc61.19.100 wrapped_avframe
  Stream #0:1(eng): Audio: pcm_s16le, 48000 Hz, stereo, s16, 1536 kb/s (default)
      Metadata:
        HANDLER_NAME    : SoundHandler
        VENDOR_ID       : [0][0][0][0]
        _STATISTICS_TAGS: BPS DURATION NUMBER_OF_FRAMES NUMBER_OF_BYTES
        BPS             : 193687
        DURATION        : 00:24:02.243000000
        NUMBER_OF_FRAMES: 67606
        NUMBER_OF_BYTES : 34918066
        _STATISTICS_WRITING_APP: mkvpropedit v66.0.0 ('Josie') 64-bit
        _STATISTICS_WRITING_DATE_UTC: 2025-04-30 12:00:00
        encoder         : Lavc61.19.100 pcm_s16le
frame=  115 fps=0.0 q=-0.0 size=N/A time=00:00:04.79 bitrate=N/A speed=9.25x    frame=  277 fps=266 q=-0.0 size=N/A time=00:00:11.55 bitrate=N/A speed=11.1x    frame=  471 fps=304 q=-0.0 size=N/A time=00:00:19.64 bitrate=N/A speed=12.7x    frame=  680 fps=328 q=-0.0 size=N/A time=00:00:28.36 bitrate=N/A speed=13.7x    frame=  883 fps=342 q=-0.0 size=N/A time=00:00:36.82 bitrate=N/A speed=14.3x    frame= 1081 fps=349 q=-0.0 size=N/A time=00:00:45.08 bitrate=N/A speed=14.6x    frame= 1293 fps=357 q=-0.0 size=N/A time=00:00:53.92 bitrate=N/A speed=14.9x    frame= 1502 fps=364 q=-0.0 size=N/A time=00:01:02.64 bitrate=N/A speed=15.2x    frame= 1756 fps=378 q=-0.0 size=N/A time=00:01:13.23 bitrate=N/A speed=15.8x    frame= 2022 fps=392 q=-0.0 size=N/A time=00:01:24.33 bitrate=N/A speed=16.3x    frame= 2277 fps=401 q=-0.0 size=N/A time=00:01:34.96 bitrate=N/A speed=16.7x    frame= 2557 fps=413 q=-0.0 size=N/A time=00:01:46.64 bitrate=N/A speed=17.2x    frame= 2794 fps=416 q=-0.0 size=N/A time=00:01:56.53 bitrate=N/A speed=17.4x    frame= 2997 fps=415 q=-0.0 size=N/A time=00:02:04.99 bitrate=N/A speed=17.3x    frame= 3167 fps=409 q=-0.0 size=N/A time=00:02:12.09 bitrate=N/A speed=17.1x    frame= 3353 fps=406 q=-0.0 size=N/A time=00:02:19.84 bitrate=N/A speed=16.9x    frame= 3564 fps=406 q=-0.0 size=N/A time=00:02:28.64 bitrate=N/A speed=  17x    frame= 3753 fps=404 q=-0.0 size=N/A time=00:02:36.53 bitrate=N/A speed=16.8x    frame= 3954 fps=403 q=-0.0 size=N/A time=00:02:44.91 bitrate=N/A speed=16.8x    frame= 4150 fps=402 q=-0.0 size=N/A time=00:02:53.08 bitrate=N/A speed=16.8x    frame= 4295 fps=396 q=-0.0 size=N/A time=00:02:59.13 bitrate=N/A speed=16.5x    frame= 4456 fps=393 q=-0.0 size=N/A time=00:03:05.85 bitrate=N/A speed=16.4x    frame= 4623 fps=390 q=-0.0 size=N/A time=00:03:12.81 bitrate=N/A speed=16.2x    frame= 4783 fps=386 q=-0.0 size=N/A time=00:03:19.49 bitrate=N/A speed=16.1x    frame= 4993 fps=387 q=-0.0 size=N/A time=00:03:28.24 bitrate=N/A speed=16.1x    frame= 5215 fps=389 q=-0.0 size=N/A time=00:03:37.50 bitrate=N/A speed=16.2x    frame= 5469 fps=392 q=-0.0 size=N/A time=00:03:48.10 bitrate=N/A speed=16.4x    frame= 5708 fps=395 q=-0.0 size=N/A time=00:03:58.07 bitrate=N/A speed=16.5x    frame= 5941 fps=397 q=-0.0 size=N/A time=00:04:07.78 bitrate=N/A speed=16.6x    frame= 6190 fps=400 q=-0.0 size=N/A time=00:04:18.17 bitrate=N/A speed=16.7x    frame= 6442 fps=403 q=-0.0 size=N/A time=00:04:28.68 bitrate=N/A speed=16.8x    frame= 6699 fps=406 q=-0.0 size=N/A time=00:04:39.40 bitrate=N/A speed=16.9x    frame= 6874 fps=404 q=-0.0 size=N/A time=00:04:46.70 bitrate=N/A speed=16.8x    frame= 7106 fps=405 q=-0.0 size=N/A time=00:04:56.37 bitrate=N/A speed=16.9x    frame= 7355 fps=407 q=-0.0 size=N/A time=00:05:06.76 bitrate=N/A speed=  17x    frame= 7551 fps=407 q=-0.0 size=N/A time=00:05:14.93 bitrate=N/A speed=  17x    frame= 7768 fps=407 q=-0.0 size=N/A time=00:05:23.99 bitrate=N/A speed=  17x    frame= 8037 fps=410 q=-0.0 size=N/A time=00:05:35.20 bitrate=N/A speed=17.1x    frame= 8253 fps=410 q=-0.0 size=N/A time=00:05:44.26 bitrate=N/A speed=17.1x    frame= 8469 fps=411 q=-0.0 size=N/A time=00:05:53.22 bitrate=N/A speed=17.1x    frame= 8691 fps=411 q=-0.0 size=N/A time=00:06:02.48 bitrate=N/A speed=17.1x    frame= 8874 fps=410 q=-0.0 size=N/A time=00:06:10.11 bitrate=N/A speed=17.1x    frame= 9123 fps=411 q=-0.0 size=N/A time=00:06:20.50 bitrate=N/A speed=17.2x    frame= 9342 fps=412 q=-0.0 size=N/A time=00:06:29.63 bitrate=N/A speed=17.2x    frame= 9523 fps=410 q=-0.0 size=N/A time=00:06:37.18 bitrate=N/A speed=17.1x    frame= 9709 fps=409 q=-0.0 size=N/A time=00:06:44.94 bitrate=N/A speed=17.1x    frame= 9917 fps=409 q=-0.0 size=N/A time=00:06:53.62 bitrate=N/A speed=17.1x    frame=10144 fps=410 q=-0.0 size=N/A time=00:07:03.08 bitrate=N/A speed=17.1x    frame=10394 fps=411 q=-0.0 size=N/A time=00:07:13.51 bitrate=N/A speed=17.2x    frame=10613 fps=412 q=-0.0 size=N/A time=00:07:22.65 bitrate=N/A speed=17.2x    frame=10811 fps=411 q=-0.0 size=N/A time=00:07:30.90 bitrate=N/A speed=17.1x    frame=11014 fps=411 q=-0.0 size=N/A time=00:07:39.37 bitrate=N/A speed=17.1x    frame=11206 fps=410 q=-0.0 size=N/A time=00:07:47.38 bitrate=N/A speed=17.1x    frame=11399 fps=409 q=-0.0 size=N/A time=00:07:55.43 bitrate=N/A speed=17.1x    frame=11637 fps=410 q=-0.0 size=N/A time=00:08:05.35 bitrate=N/A speed=17.1x    frame=11877 fps=411 q=-0.0 size=N/A time=00:08:15.36 bitrate=N/A speed=17.2x    frame=12142 fps=413 q=-0.0 size=N/A time=00:08:26.42 bitrate=N/A speed=17.2x    frame=12379 fps=414 q=-0.0 size=N/A time=00:08:36.30 bitrate=N/A speed=17.3x    frame=12630 fps=415 q=-0.0 size=N/A time=00:08:46.77 bitrate=N/A speed=17.3x    frame=12861 fps=416 q=-0.0 size=N/A time=00:08:56.41 bitrate=N/A speed=17.3x    frame=13063 fps=415 q=-0.0 size=N/A time=00:09:04.83 bitrate=N/A speed=17.3x    frame=13274 fps=415 q=-0.0 size=N/A time=00:09:13.63 bitrate=N/A speed=17.3x    frame=13492 fps=415 q=-0.0 size=N/A time=00:09:22.72 bitrate=N/A speed=17.3x    frame=13711 fps=415 q=-0.0 size=N/A time=00:09:31.86 bitrate=N/A speed=17.3x    frame=13918 fps=415 q=-0.0 size=N/A time=00:09:40.49 bitrate=N/A speed=17.3x    frame=14136 fps=415 q=-0.0 size=N/A time=00:09:49.58 bitrate=N/A speed=17.3x    frame=14313 fps=414 q=-0.0 size=N/A time=00:09:56.97 bitrate=N/A speed=17.3x    frame=14467 fps=413 q=-0.0 size=N/A time=00:10:03.39 bitrate=N/A speed=17.2x    frame=14678 fps=413 q=-0.0 size=N/A time=00:10:12.19 bitrate=N/A speed=17.2x    frame=14920 fps=413 q=-0.0 size=N/A time=00:10:22.28 bitrate=N/A speed=17.2x    frame=15137 fps=413 q=-0.0 size=N/A time=00:10:31.33 bitrate=N/A speed=17.2x    frame=15343 fps=413 q=-0.0 size=N/A time=00:10:39.93 bitrate=N/A speed=17.2x    frame=15539 fps=413 q=-0.0 size=N/A time=00:10:48.10 bitrate=N/A speed=17.2x    frame=15755 fps=413 q=-0.0 size=N/A time=00:10:57.11 bitrate=N/A speed=17.2x    frame=15953 fps=413 q=-0.0 size=N/A time=00:11:05.37 bitrate=N/A speed=17.2x    frame=16206 fps=413 q=-0.0 size=N/A time=00:11:15.92 bitrate=N/A speed=17.2x    frame=16426 fps=414 q=-0.0 size=N/A time=00:11:25.10 bitrate=N/A speed=17.3x    frame=16610 fps=413 q=-0.0 size=N/A time=00:11:32.77 bitrate=N/A speed=17.2x    frame=16785 fps=412 q=-0.0 size=N/A time=00:11:40.07 bitrate=N/A speed=17.2x    frame=17029 fps=413 q=-0.0 size=N/A time=00:11:50.25 bitrate=N/A speed=17.2x    frame=17242 fps=413 q=-0.0 size=N/A time=00:11:59.13 bitrate=N/A speed=17.2x    frame=17471 fps=413 q=-0.0 size=N/A time=00:12:08.68 bitrate=N/A speed=17.2x    frame=17729 fps=414 q=-0.0 size=N/A time=00:12:19.44 bitrate=N/A speed=17.3x    frame=17967 fps=415 q=-0.0 size=N/A time=00:12:29.37 bitrate=N/A speed=17.3x    frame=18180 fps=415 q=-0.0 size=N/A time=00:12:38.25 bitrate=N/A speed=17.3x    frame=18378 fps=414 q=-0.0 size=N/A time=00:12:46.51 bitrate=N/A speed=17.3x    frame=18557 fps=414 q=-0.0 size=N/A time=00:12:53.98 bitrate=N/A speed=17.2x    frame=18769 fps=413 q=-0.0 size=N/A time=00:13:02.82 bitrate=N/A speed=17.2x    frame=18968 fps=413 q=-0.0 size=N/A time=00:13:11.12 bitrate=N/A speed=17.2x    frame=19177 fps=413 q=-0.0 size=N/A time=00:13:19.84 bitrate=N/A speed=17.2x    frame=19408 fps=413 q=-0.0 size=N/A time=00:13:29.47 bitrate=N/A speed=17.2x    frame=19656 fps=414 q=-0.0 size=N/A time=00:13:39.81 bitrate=N/A speed=17.3x    frame=19912 fps=415 q=-0.0 size=N/A time=00:13:50.49 bitrate=N/A speed=17.3x    frame=20167 fps=416 q=-0.0 size=N/A time=00:14:01.13 bitrate=N/A speed=17.3x    frame=20427 fps=417 q=-0.0 size=N/A time=00:14:11.97 bitrate=N/A speed=17.4x    frame=20685 fps=418 q=-0.0 size=N/A time=00:14:22.73 bitrate=N/A speed=17.4x    frame=20928 fps=418 q=-0.0 size=N/A time=00:14:32.87 bitrate=N/A speed=17.4x    frame=21155 fps=418 q=-0.0 size=N/A time=00:14:42.33 bitrate=N/A speed=17.5x    frame=21367 fps=418 q=-0.0 size=N/A time=00:14:51.18 bitrate=N/A speed=17.4x    frame=21619 fps=419 q=-0.0 size=N/A time=00:15:01.69 bitrate=N/A speed=17.5x    frame=21854 fps=420 q=-0.0 size=N/A time=00:15:11.49 bitrate=N/A speed=17.5x    frame=22103 fps=420 q=-0.0 size=N/A time=00:15:21.87 bitrate=N/A speed=17.5x    frame=22372 fps=421 q=-0.0 size=N/A time=00:15:33.09 bitrate=N/A speed=17.6x    frame=22629 fps=422 q=-0.0 size=N/A time=00:15:43.81 bitrate=N/A speed=17.6x    frame=22898 fps=423 q=-0.0 size=N/A time=00:15:55.03 bitrate=N/A speed=17.6x    frame=23125 fps=423 q=-0.0 size=N/A time=00:16:04.50 bitrate=N/A speed=17.6x    frame=23336 fps=423 q=-0.0 size=N/A time=00:16:13.30 bitrate=N/A speed=17.6x    frame=23532 fps=422 q=-0.0 size=N/A time=00:16:21.48 bitrate=N/A speed=17.6x    frame=23740 fps=422 q=-0.0 size=N/A time=00:16:30.15 bitrate=N/A speed=17.6x    frame=23967 fps=422 q=-0.0 size=N/A time=00:16:39.62 bitrate=N/A speed=17.6x    frame=24186 fps=422 q=-0.0 size=N/A time=00:16:48.75 bitrate=N/A speed=17.6x    frame=24423 fps=423 q=-0.0 size=N/A time=00:16:58.64 bitrate=N/A speed=17.6x    frame=24660 fps=423 q=-0.0 size=N/A time=00:17:08.52 bitrate=N/A speed=17.6x    frame=24832 fps=422 q=-0.0 size=N/A time=00:17:15.70 bitrate=N/A speed=17.6x    frame=25053 fps=422 q=-0.0 size=N/A time=00:17:24.91 bitrate=N/A speed=17.6x    frame=25261 fps=422 q=-0.0 size=N/A time=00:17:33.59 bitrate=N/A speed=17.6x    frame=25487 fps=422 q=-0.0 size=N/A time=00:17:43.02 bitrate=N/A speed=17.6x    frame=25719 fps=423 q=-0.0 size=N/A time=00:17:52.69 bitrate=N/A speed=17.6x    frame=25959 fps=423 q=-0.0 size=N/A time=00:18:02.70 bitrate=N/A speed=17.6x    frame=26199 fps=423 q=-0.0 size=N/A time=00:18:12.71 bitrate=N/A speed=17.7x    frame=26412 fps=423 q=-0.0 size=N/A time=00:18:21.60 bitrate=N/A speed=17.6x    frame=26633 fps=423 q=-0.0 size=N/A time=00:18:30.81 bitrate=N/A speed=17.7x    frame=26881 fps=424 q=-0.0 size=N/A time=00:18:41.16 bitrate=N/A speed=17.7x    frame=27134 fps=424 q=-0.0 size=N/A time=00:18:51.75 bitrate=N/A speed=17.7x    frame=27386 fps=425 q=-0.0 size=N/A time=00:19:02.22 bitrate=N/A speed=17.7x    frame=27616 fps=425 q=-0.0 size=N/A time=00:19:11.81 bitrate=N/A speed=17.7x    frame=27899 fps=426 q=-0.0 size=N/A time=00:19:23.62 bitrate=N/A speed=17.8x    frame=28091 fps=425 q=-0.0 size=N/A time=00:19:31.62 bitrate=N/A speed=17.7x    frame=28299 fps=425 q=-0.0 size=N/A time=00:19:40.30 bitrate=N/A speed=17.7x    frame=28529 fps=425 q=-0.0 size=N/A time=00:19:49.89 bitrate=N/A speed=17.7x    frame=28775 fps=426 q=-0.0 size=N/A time=00:20:00.15 bitrate=N/A speed=17.8x    frame=28971 fps=426 q=-0.0 size=N/A time=00:20:08.33 bitrate=N/A speed=17.7x    frame=29166 fps=425 q=-0.0 size=N/A time=00:20:16.46 bitrate=N/A speed=17.7x    frame=29420 fps=426 q=-0.0 size=N/A time=00:20:27.05 bitrate=N/A speed=17.8x    frame=29628 fps=426 q=-0.0 size=N/A time=00:20:35.73 bitrate=N/A speed=17.7x    frame=29850 fps=426 q=-0.0 size=N/A time=00:20:44.99 bitrate=N/A speed=17.7x    frame=30065 fps=425 q=-0.0 size=N/A time=00:20:53.96 bitrate=N/A speed=17.7x    frame=30305 fps=426 q=-0.0 size=N/A time=00:21:03.97 bitrate=N/A speed=17.8x    frame=30565 fps=426 q=-0.0 size=N/A time=00:21:14.81 bitrate=N/A speed=17.8x    frame=30839 fps=427 q=-0.0 size=N/A time=00:21:26.24 bitrate=N/A speed=17.8x    frame=31089 fps=427 q=-0.0 size=N/A time=00:21:36.67 bitrate=N/A speed=17.8x    frame=31333 fps=428 q=-0.0 size=N/A time=00:21:46.84 bitrate=N/A speed=17.8x    frame=31569 fps=428 q=-0.0 size=N/A time=00:21:56.69 bitrate=N/A speed=17.9x    frame=31802 fps=428 q=-0.0 size=N/A time=00:22:06.40 bitrate=N/A speed=17.9x    frame=32057 fps=429 q=-0.0 size=N/A time=00:22:17.04 bitrate=N/A speed=17.9x    frame=32297 fps=429 q=-0.0 size=N/A time=00:22:27.05 bitrate=N/A speed=17.9x    frame=32511 fps=429 q=-0.0 size=N/A time=00:22:35.97 bitrate=N/A speed=17.9x    frame=32760 fps=429 q=-0.0 size=N/A time=00:22:46.36 bitrate=N/A speed=17.9x    frame=32931 fps=428 q=-0.0 size=N/A time=00:22:53.49 bitrate=N/A speed=17.9x    frame=33071 fps=427 q=-0.0 size=N/A time=00:22:59.33 bitrate=N/A speed=17.8x    frame=33247 fps=427 q=-0.0 size=N/A time=00:23:06.67 bitrate=N/A speed=17.8x    frame=33420 fps=426 q=-0.0 size=N/A time=00:23:13.89 bitrate=N/A speed=17.8x    frame=33578 fps=425 q=-0.0 size=N/A time=00:23:20.48 bitrate=N/A speed=17.7x    frame=33745 fps=425 q=-0.0 size=N/A time=00:23:27.44 bitrate=N/A speed=17.7x    frame=33923 fps=424 q=-0.0 size=N/A time=00:23:34.87 bitrate=N/A speed=17.7x    frame=34085 fps=424 q=-0.0 size=N/A time=00:23:41.62 bitrate=N/A speed=17.7x    frame=34236 fps=423 q=-0.0 size=N/A time=00:23:47.92 bitrate=N/A speed=17.6x    frame=34395 fps=422 q=-0.0 size=N/A time=00:23:54.55 bitrate=N/A speed=17.6x    [Parsed_ssim_10 @ 0000027848dc0340] SSIM Y:0.992243 (21.102823) U:0.990997 (20.456115) V:0.991091 (20.501609) All:0.991843 (20.884701)
[out#0/null @ 000002783cc9c100] video:14857KiB audio:270424KiB subtitle:0KiB other streams:0KiB global headers:0KiB muxing overhead: unknown
frame=34577 fps=422 q=-0.0 Lsize=N/A time=00:24:02.14 bitrate=N/A speed=17.6x    
